<?xml version="1.0" encoding="UTF-8"?>
<!-- Created with Inkscape (http://www.inkscape.org/) -->
<svg width="300" height="134.98" version="1.1" viewBox="0 0 79.375 35.713" xmlns="http://www.w3.org/2000/svg">
 <g stroke-linecap="square" stroke-linejoin="round" stroke-miterlimit="10">
  <path d="m17.019 27.826-0.18965 1.7906c1.6353 0.64286 3.4134 0.99994 5.2746 0.99994 0.33241-1.56e-4 0.66284-0.01318 0.99115-0.03617l0.01137-1.741c-0.33201 0.02631-0.66579 0.04274-1.0025 0.04289-1.8094 0-3.5279-0.37828-5.085-1.0563zm6.0606 5.2152c-1.6347 0.60202-3.3878 0.93735-5.2219 0.93896-0.50045 0-0.9944-0.02634-1.4831-0.0708l-0.18242 1.7229c0.5487 0.05092 1.1037 0.0801 1.6655 0.0801 1.8014-0.0014 3.5522-0.27434 5.2095-0.78186z" fill="#998933" style="paint-order:markers stroke fill"/>
  <path d="m18.92 28.483-0.26303 1.7162c1.1052 0.27121 2.2589 0.41806 3.4468 0.41806 2.7785-0.0013 5.4291-0.81173 7.6931-2.2381-2.9381 3.3315-7.0658 5.5234-11.719 5.595l-0.26665 1.7379c0.01559 4.1e-5 0.03091 1e-3 0.04651 1e-3 8.0892-0.0061 15.172-5.4585 17.246-13.277a0.86694 0.86694 0 0 0-1.6128-0.60772c-2.1512 4.3225-6.5587 7.0526-11.387 7.0549-1.0997 0-2.1666-0.13885-3.1838-0.39998z" fill="#998933" style="paint-order:markers stroke fill"/>
  <path d="m18.795 29.299-0.85008 5.5418a16.99 16.99 0 0 0 16.321-12.627 13.592 13.592 0 0 1-12.162 7.536 13.592 13.592 0 0 1-3.3094-0.45114z" fill="#ffc" style="paint-order:markers stroke fill"/>
 </g>
 <path d="m14.423 8.6277c-0.032 0.25575-0.04806 0.51217-0.04806 0.76791 0 0.23976 0.02445 0.47127 0.07235 0.69505 0.43157 0.04795 0.7508 0.13568 0.9586 0.26355 0.20779 0.11189 0.31939 0.31173 0.33538 0.59945 0.016 0.27173-0.03955 0.69529-0.16743 1.2707-0.19181 0.87913-0.39944 1.7424-0.62322 2.5895-0.20779 0.84716-0.43152 1.6942-0.67128 2.5414-0.23977 0.84716-2.1307 8.5054-2.4185 9.4325-0.25575 0.84716-0.48776 1.5105-0.69556 1.9901-0.20779 0.46354-0.43152 0.80714-0.67128 1.0309-0.23976 0.2078-0.55121 0.36767-0.93483 0.47956-0.0959 0.20779-0.16753 0.44761-0.21549 0.71934-0.04795 0.25575-0.07235 0.50334-0.07235 0.7431 0.46354-0.032 0.91924-0.0558 1.3668-0.0718h2.5895c0.10959 4e-3 0.21803 8e-3 0.32556 0.0134 0.31593 0.0149 0.62274 0.0345 0.92087 0.0584 0.032-0.25575 0.04029-0.50334 0.02429-0.7431 0-0.25575-0.01606-0.49557-0.04806-0.71934-0.5115-0.1119-0.879-0.27177-1.1028-0.47956-0.2078-0.22378-0.29604-0.57517-0.26407-1.0547 0.04795-0.49551 0.19173-1.1832 0.4315-2.0624 0.19181-0.70331 2.0184-8.2494 2.2262-9.0966 0.22378-0.86314 0.4475-1.7502 0.67128-2.6613 0.17922-0.68105 0.34108-1.3501 0.49351-2.0133 0.59336 1.9058 1.1595 3.8224 1.6888 5.7537 0.59141 2.1419 1.1427 4.2918 1.6542 6.4497 0.08899 0 0.17812-0.0073 0.26717-0.0098v1e-3c0.1349-0.0039 0.26973-0.0047 0.40463-0.01447 0.2397-0.016 0.48741-0.05599 0.74311-0.11989 1.2628-2.0619 2.5018-4.1637 3.7166-6.3056 1.0415-1.85 2.0402-3.6927 3.0112-5.5309-0.0651 1.103-0.13129 2.2031-0.20619 3.2768-0.096 1.3747-0.33427 10.653-0.45527 11.964-0.0708 0.767-0.16004 1.359-0.28784 1.774-0.1119 0.416-0.30346 0.72006-0.57516 0.91106-0.2718 0.176-0.67968 0.30395-1.2232 0.38395-0.0959 0.224-0.16749 0.46282-0.21549 0.71882-0.032 0.256-0.04806 0.50411-0.04806 0.74311 0.5595-0.032 1.1429-0.0548 1.7503-0.0708h3.7641c0.6074 0.016 1.1509 0.0388 1.6304 0.0708 0.032-0.255 0.04806-0.51088 0.04806-0.76688 0-0.255-0.02383-0.48705-0.07183-0.69505-0.3836-0.08-0.6712-0.20018-0.863-0.36018-0.1918-0.159-0.31167-0.43871-0.35967-0.83871-0.032-0.415-6e-3 -1.0153 0.07183-1.7983 0.1141-1.151 0.32731-10.301 0.40721-11.58 0.0799-1.2787 0.15988-2.6055 0.23978-3.9801 0.0479-0.6873 0.12011-1.223 0.21601-1.6066 0.1119-0.3836 0.27953-0.66281 0.50333-0.83871 0.2397-0.1758 0.5678-0.29618 0.9834-0.36018 0.0799-0.2238 0.13543-0.45525 0.16743-0.69505 0.0479-0.2557 0.07235-0.5116 0.07235-0.7674-0.4636 0.032-0.88712 0.05593-1.2707 0.07183h-2.1342c-0.4316-0.0159-0.90288-0.03983-1.4144-0.07183-1.1029 2.1419-2.2376 4.268-3.4044 6.3779-0.25684 0.46094-0.52203 0.92024-0.78342 1.3803v-0.0036c-0.36702 0.64777-0.73759 1.2952-1.1121 1.9415-0.0013 0.0023-0.0028 0.0044-0.0041 0.0067-0.04744 0.08154-0.09559 0.16291-0.14314 0.24443-0.32943 0.56685-0.66031 1.1335-0.9958 1.6991-0.41544-1.7911-0.8531-3.5736-1.3255-5.3418-0.55945-2.1099-1.1589-4.2122-1.7983-6.3061-0.44756 0.03197-0.89497 0.05637-1.3426 0.07235h-1.9906c-0.3037 0-0.61514-0.0078-0.93483-0.02377-0.30369-0.01598-0.59127-0.0326-0.863-0.04857z" fill="#fff" stroke="#403326" stroke-linejoin="round" stroke-width="1.6989" style="paint-order:markers stroke fill"/>
 <g stroke-linecap="square" stroke-linejoin="round" stroke-miterlimit="10">
  <path d="m17.857-2.286e-4c-9.8518 0-17.857 8.006-17.857 17.858 0 9.8362 7.9805 17.829 17.811 17.854l0.26665-1.7379c-0.07364 0.0011-0.14624 0.0067-0.22014 0.0067-8.9148 0-16.123-7.2082-16.123-16.123 0-8.9148 7.2082-16.123 16.123-16.123 0.55945 9.95e-5 1.0932 0.17071 1.6464 0.22841-6.7334 1.231-11.859 7.1104-11.859 14.195 0 6.7872 4.6974 12.491 11.012 14.041l0.26303-1.7162c-5.4928-1.4101-9.541-6.3864-9.541-12.325 0-7.0382 5.6866-12.724 12.725-12.724 1.4882 3.57e-4 2.9652 0.26097 4.363 0.77153a0.86694 0.86694 0 0 0 0.75189-1.5529c-0.05012-0.030872-0.10929-0.039926-0.15968-0.07028l0.0016-0.00568c-0.0081-0.00296-0.01721-0.00119-0.02532-0.00413-2.7744-1.6658-5.9393-2.5719-9.1778-2.5725z" fill="#998933" style="paint-order:markers stroke fill"/>
  <path d="m16.697 28.595v6.179c0.3853 0.04094 0.7719 0.06869 1.1591 0.0832 1.3767-0.0144 2.7465-0.19609 4.0793-0.54105v-4.5697c-1.8053-0.03204-3.5861-0.42344-5.2384-1.1514z" fill="#ffc" style="paint-order:markers stroke fill"/>
  <path d="m17.857 0.8669a16.99 16.99 0 0 0-16.99 16.99 16.99 16.99 0 0 0 16.99 16.99 16.99 16.99 0 0 0 0.08785-0.0067l0.85008-5.5418a13.592 13.592 0 0 1-10.283-13.141 13.592 13.592 0 0 1 13.592-13.592 13.592 13.592 0 0 1 4.6597 0.82476 16.99 16.99 0 0 0-8.907-2.5239z" fill="#ffc" style="paint-order:markers stroke fill"/>
 </g>
 <path d="m35.839 18.785q-0.69771 0-1.1417-0.55816-0.44399-0.55817-0.4313-1.573 0.0127-0.95142 0.39325-1.7252 0.38056-0.7865 1.0402-1.2432 0.65964-0.46936 1.5096-0.46936 0.40594 0 0.79919 0.0888 0.39325 0.07611 0.68502 0.1776l-0.45668 0.8753q-0.24102-0.1776-0.48205-0.29177-0.22834-0.11417-0.55816-0.11417-0.31714 0-0.54548 0.20297-0.22834 0.19028-0.38057 0.53279-0.15222 0.34251-0.22833 0.77382-0.0761 0.43131-0.0761 0.90067-0.0127 0.63428 0.12686 0.97679 0.13954 0.32982 0.36788 0.32982 0.16491 0 0.32982-0.12686 0.1776-0.12685 0.36788-0.39325 0.19028-0.26639 0.36788-0.65964l0.19029 0.0888q-0.19029 1.091-0.7104 1.6491-0.50742 0.55816-1.1671 0.55816zm2.4864-0.0254q-0.44399 0-0.63428-0.22834-0.19028-0.24102-0.21565-0.68501-0.0127-0.16491-0.0127-0.444 0-0.27908 0-0.46936l0.39325-3.0826 1.3447-0.6977 0.30445 0.25371-0.41862 3.387q-0.0127 0.15222-0.0381 0.32982-0.0127 0.16491-0.0127 0.2664 0 0.22834 0.15223 0.22834 0.0888 0 0.24102-0.0634 0.16491-0.0761 0.45668-0.24103l0.27909 0.6089q-0.43131 0.39326-0.92605 0.6216-0.48205 0.21565-0.91336 0.21565zm2.5878-0.0888 0.444-3.4378q0.0254-0.13954 0.0381-0.32982 0.0254-0.20297 0.0254-0.3552 0-0.20297-0.10149-0.27908-0.10148-0.0888-0.30445-0.0888h-0.38057l0.0761-0.63428q0.45667-0.1776 0.83724-0.25371t0.67234-0.07611q0.48205 0 0.65964 0.22834 0.1776 0.22834 0.15223 0.60891l-0.0507 1.1036-0.41862 3.5139zm1.8902-3.1333q0.40594-1.3447 0.86262-1.8775 0.45667-0.54548 0.95141-0.54548 0.32982 0 0.46936 0.15223 0.13955 0.15223 0.13955 0.50742 0 0.27908-0.0507 0.52011t-0.11417 0.45668h-0.50742q-0.57085 0-0.97678 0.24102-0.40594 0.24102-0.74845 0.9641zm2.6893 3.2475-0.50742-0.5201 3.7803-4.0721 0.0127 0.49474-1.3827-0.06343q-0.29177-0.01269-0.46937 0.02537-0.17759 0.03806-0.29176 0.19028-0.10149 0.13954-0.19028 0.45668h-0.72308q-0.0127-0.25371-0.0254-0.45668-0.0127-0.21565-0.0127-0.36788 0-0.38057 0.0761-0.62159 0.0761-0.25371 0.27908-0.40594 0.1776-0.12686 0.38057-0.16491 0.21565-0.05074 0.4313-0.05074t0.53279 0.03806 0.7104 0.0888l1.0275 0.12686 0.82457-0.34251 0.43131 0.52011-3.6408 4.0086-0.10148-0.53279 1.4715 0.17759q0.0254 0 0.0761 0.0127 0.0634 0 0.15222 0 0.36788 0 0.63428-0.20297 0.27908-0.20297 0.5201-0.7865l0.67234 0.0888q-0.0761 0.92604-0.2664 1.4335-0.19028 0.50742-0.52011 0.71039-0.31714 0.19028-0.81187 0.19028-0.36788 0-0.73576-0.0761t-0.69771-0.15223l-0.81187-0.19028zm6.6345-0.0254q-0.88799 0-0.88799-0.8753 0-0.24103 0.0381-0.57085 0.0507-0.32982 0.0888-0.57085l0.24102-1.5096q0.0254-0.19028 0.0381-0.27908 0.0127-0.10148 0.0127-0.24102 0-0.40594-0.0888-0.46936-0.0888-0.06343-0.30446-0.06343h-0.38056l0.0761-0.63428q0.46937-0.1776 0.81188-0.25371 0.35519-0.07611 0.67233-0.07611 0.48205 0 0.68502 0.1776 0.21565 0.1776 0.21565 0.55816 0 0.15223-0.0254 0.3552-0.0127 0.19028-0.0381 0.32982l-0.30445 2.1565q-0.0254 0.1776-0.0507 0.34251-0.0127 0.15223-0.0127 0.25371 0 0.22834 0.13954 0.22834 0.10149 0 0.27909-0.0761 0.17759-0.0761 0.4313-0.22833l0.27908 0.59622q-0.41862 0.40594-0.92604 0.63428-0.50742 0.21565-0.98948 0.21565zm0.50742-6.1905q-0.36788 0-0.60891-0.20297-0.22833-0.21565-0.22833-0.55816 0-0.38057 0.27908-0.64696 0.29176-0.2664 0.73576-0.2664 0.36788 0 0.59622 0.21566 0.24103 0.20297 0.24103 0.53279 0 0.39325-0.29177 0.65965-0.27909 0.2664-0.72308 0.2664zm3.8057 6.2667q-0.79919 0-1.3574-0.5328-0.55816-0.54548-0.55816-1.6872 0.0127-0.9641 0.39325-1.7506 0.39326-0.7865 1.0783-1.2559 0.68501-0.46936 1.5603-0.46936 0.31714 0 0.6089 0.06343 0.30445 0.06343 0.55816 0.20297 0.21566 0.11417 0.31714 0.27908 0.10149 0.15223 0.10149 0.34251 0 0.35519-0.10149 0.76113-0.10148 0.40594-0.22834 0.6977h-0.76112q-0.12686-0.86262-0.27909-1.2305-0.15223-0.38057-0.48205-0.38057-0.2664 0-0.52011 0.2664-0.24102 0.2664-0.39325 0.7865-0.15222 0.52011-0.16491 1.2812 0 0.84993 0.26639 1.1924 0.27908 0.34251 0.71039 0.34251 0.34252 0 0.69771-0.20297 0.3552-0.20297 0.62159-0.44399l0.38056 0.53279q-0.32982 0.46936-0.97678 0.83724-0.64696 0.36789-1.4715 0.36789zm7.1293-0.0761q-0.39325 0-0.62159-0.19028-0.21565-0.20297-0.21565-0.64697 0-0.27908 0.0381-0.53279 0.0381-0.26639 0.0888-0.58353 0.0507-0.30446 0.10149-0.63428 0.0507-0.34251 0.0888-0.65965t0.0381-0.54548q0-0.29177-0.0888-0.45668-0.0761-0.1776-0.29176-0.1776-0.15223 0-0.3552 0.11417t-0.41862 0.3552q-0.21566 0.22834-0.39325 0.58354l-0.12686-0.32982q0.36788-1.0022 0.8753-1.4208 0.52011-0.41862 1.1417-0.41862 0.59622 0 0.95141 0.39325 0.36789 0.38057 0.36789 1.0656 0 0.34251-0.0507 0.6977-0.0381 0.34251-0.10148 0.67233-0.0634 0.32982-0.11417 0.62159-0.0507 0.26639-0.0761 0.44399t-0.0254 0.31714q0 0.19028 0.15222 0.19028 0.0888 0 0.25371-0.0634 0.1776-0.0761 0.444-0.24103l0.27908 0.59623q-0.43131 0.43131-0.95142 0.64696-0.5201 0.20297-0.98946 0.20297zm-3.9072-0.0888 0.79919-6.3301q0.0254-0.13954 0.0381-0.3552 0.0254-0.22834 0.0254-0.32982 0-0.20297-0.10148-0.27908-0.10149-0.0888-0.30445-0.0888h-0.38057l0.0761-0.63428q0.46936-0.1776 0.82455-0.25371 0.36789-0.07611 0.69771-0.07611 0.46937 0 0.65965 0.19028t0.19028 0.54548q0 0.10148-0.0254 0.27908-0.0127 0.16491-0.0381 0.40594l-0.79919 6.9263zm7.9031 0.11417q-0.69771 0-1.1417-0.55816-0.444-0.55817-0.43131-1.573 0.0127-0.95141 0.39325-1.7252 0.38057-0.7865 1.0402-1.2432 0.65964-0.46936 1.5096-0.46936 0.40593 0 0.79918 0.0888 0.39325 0.07611 0.68502 0.1776l-0.45668 0.8753q-0.24102-0.1776-0.48205-0.29177-0.22834-0.11417-0.55816-0.11417-0.31714 0-0.54548 0.20297-0.22834 0.19028-0.38057 0.53279t-0.22834 0.77382q-0.0761 0.43131-0.0761 0.90067-0.0127 0.63427 0.12685 0.97678 0.13955 0.32982 0.36789 0.32982 0.16491 0 0.32982-0.12685 0.1776-0.12686 0.36788-0.39325 0.19029-0.2664 0.36788-0.65965l0.19029 0.0888q-0.19029 1.091-0.71039 1.6491-0.50743 0.55816-1.1671 0.55816zm2.4864-0.0254q-0.44399 0-0.63427-0.22834-0.19029-0.24102-0.21566-0.68502-0.0127-0.16491-0.0127-0.444 0-0.27908 0-0.46936l0.39325-3.0826 1.3447-0.6977 0.30445 0.25371-0.41862 3.387q-0.0127 0.15222-0.0381 0.32982-0.0127 0.16491-0.0127 0.2664 0 0.22834 0.15223 0.22834 0.0888 0 0.24103-0.0634 0.16491-0.0761 0.45668-0.24103l0.27908 0.60891q-0.43131 0.39325-0.92605 0.62159-0.48205 0.21565-0.91336 0.21565zm6.5331 0q-0.39325 0-0.6216-0.19028-0.21565-0.20297-0.21565-0.64697 0-0.27908 0.0381-0.53279 0.0381-0.2664 0.0888-0.58354 0.0507-0.30445 0.10148-0.63427 0.0507-0.34251 0.0888-0.65965t0.0381-0.54548q0-0.29177-0.0888-0.45668-0.0761-0.1776-0.29177-0.1776-0.15223 0-0.3552 0.11417t-0.41862 0.3552q-0.21565 0.22834-0.39325 0.58354l-0.12685-0.32982q0.36787-1.0022 0.87529-1.4208 0.52011-0.41862 1.1417-0.41862 0.59621 0 0.95141 0.39325 0.36788 0.38057 0.36788 1.0656 0 0.34251-0.0507 0.6977-0.0381 0.34251-0.10149 0.67233-0.0634 0.32982-0.11416 0.62159-0.0507 0.2664-0.0761 0.44399-0.0254 0.1776-0.0254 0.31714 0 0.19029 0.15222 0.19029 0.0888 0 0.25372-0.0634 0.1776-0.0761 0.44399-0.24103l0.27908 0.59623q-0.4313 0.4313-0.95141 0.64695-0.52011 0.20297-0.98947 0.20297zm-3.9452-0.0888 0.44399-3.4378q0.0254-0.13954 0.0381-0.34251 0.0254-0.21565 0.0254-0.34251 0-0.20297-0.10148-0.27908-0.10149-0.0888-0.30446-0.0888h-0.38057l0.0761-0.63428q0.45668-0.1776 0.83725-0.25371 0.39325-0.07611 0.68501-0.07611 0.48205 0 0.64697 0.24103 0.16491 0.22834 0.15222 0.6089l-0.0126 0.8753-0.444 3.7295z" fill="#fff" stroke="#403326" stroke-linejoin="round" stroke-width="1.699" style="paint-order:markers stroke fill" aria-label="arzichan"/>
</svg>
